<?xml version="1.0"?>
<!-- Created by MetaPost 2.02 on 2024.12.29:2023 -->
<svg version="1.1" xmlns="http://www.w3.org/2000/svg" xmlns:xlink="http://www.w3.org/1999/xlink" width="63.122406" height="77.469452" viewBox="0 0 63.122406 77.469452">
<!-- Original BoundingBox: -31.561203 -38.734726 31.561203 38.734726 -->
  <path d="M5.177414 -0.734726L-0.561203 -0.734726L-0.561203 5.003891L-0.561203 76.734726L5.177414 76.734726L12.063629 62.388779L12.063629 56.650162L12.063629 -0.734726L6.325012 -0.734726L-0.561203 -0.734726L-0.561203 5.003891L5.177414 5.003891L12.063629 5.003891L6.325012 5.003891L6.325012 62.388779L6.325012 56.650162L-0.561203 70.996109L5.177414 70.996109Z" style="fill: rgb(0.000000%,0.000000%,0.000000%);stroke: none;"></path>
  <path d="M2.308105 2.134583L2.308105 73.865417L9.194321 59.519470L9.194321 2.134583Z" style="fill: rgb(0.000000%,0.000000%,0.000000%);stroke: none;"></path>
  <path d="M56.822586 76.734726L62.561203 76.734726L62.561203 70.996109L62.561203 -0.734726L56.822586 -0.734726L49.936371 -0.734726L49.936371 5.003891L49.936371 76.734726L55.674988 76.734726L62.561203 76.734726L62.561203 70.996109L56.822586 70.996109L49.936371 70.996109L55.674988 70.996109L55.674988 -0.734726L55.674988 5.003891L62.561203 5.003891L56.822586 5.003891Z" style="fill: rgb(0.000000%,0.000000%,0.000000%);stroke: none;"></path>
  <path d="M59.691895 73.865417L59.691895 2.134583L52.805679 2.134583L52.805679 73.865417Z" style="fill: rgb(0.000000%,0.000000%,0.000000%);stroke: none;"></path>
  <path d="M5.177414 76.734726L49.936371 7.514175L49.936371 -0.734726L5.177414 68.485825L5.177414 76.734726Z" style="fill: rgb(0.000000%,0.000000%,0.000000%);stroke: none;"></path>
</svg>
