<?xml version="1.0"?>
<!-- Created by MetaPost 2.02 on 2024.12.29:2023 -->
<svg version="1.1" xmlns="http://www.w3.org/2000/svg" xmlns:xlink="http://www.w3.org/1999/xlink" width="55.662674" height="81.952637" viewBox="0 0 55.662674 81.952637">
<!-- Original BoundingBox: -31.274445 -43.217911 24.388229 38.734726 -->
  <path d="M55.388229 -0.734726L49.649612 -0.734726L49.649612 5.003891L49.649612 64.899063L55.388229 64.899063L55.388229 59.160446Z" style="fill: rgb(0.000000%,0.000000%,0.000000%);stroke: none;"></path>
  <path d="M33.869308 35.130692L28.130692 35.130692L28.130692 40.869308L28.130692 64.899063L33.869308 64.899063L33.869308 59.160446Z" style="fill: rgb(0.000000%,0.000000%,0.000000%);stroke: none;"></path>
  <path d="M12.350388 5.003891L12.350388 -0.734726L6.611771 -0.734726L-0.274445 -0.734726L-0.274445 5.003891L-0.274445 64.899063L5.464172 64.899063L12.350388 64.899063L12.350388 59.160446L12.350388 -0.734726L6.611771 -0.734726L6.611771 5.003891L6.611771 64.899063L6.611771 59.160446L-0.274445 59.160446L5.464172 59.160446L5.464172 -0.734726L5.464172 5.003891Z" style="fill: rgb(0.000000%,0.000000%,0.000000%);stroke: none;"></path>
  <path d="M9.481079 2.134583L2.594864 2.134583L2.594864 62.029755L9.481079 62.029755Z" style="fill: rgb(0.000000%,0.000000%,0.000000%);stroke: none;"></path>
  <path d="M31.000000 64.899063C31.000000 68.466263,32.133804 71.886932,34.151535 74.409119C36.169250 76.931320,38.905746 78.348602,41.759460 78.348602C44.613174 78.348602,47.349670 76.931320,49.367386 74.409119C51.385117 71.886932,52.518921 68.466263,52.518921 64.899063" style="stroke:rgb(0.000000%,0.000000%,0.000000%); stroke-width: 5.738602;stroke-linecap: round;stroke-linejoin: round;stroke-miterlimit: 10.000000;fill: none;"></path>
  <path d="M9.481079 64.899063C9.481079 68.466263,10.614883 71.886932,12.632614 74.409119C14.650330 76.931320,17.386826 78.348602,20.240540 78.348602C23.094254 78.348602,25.830750 76.931320,27.848465 74.409119C29.866196 71.886932,31.000000 68.466263,31.000000 64.899063" style="stroke:rgb(0.000000%,0.000000%,0.000000%); stroke-width: 5.738602;stroke-linecap: round;stroke-linejoin: round;stroke-miterlimit: 10.000000;fill: none;"></path>
  <path d="M2.595078 64.899063C2.595078 68.466263,4.454514 71.886932,7.763580 74.409119C11.072632 76.931320,15.560471 78.348602,20.240540 78.348602" style="stroke:rgb(0.000000%,0.000000%,0.000000%); stroke-width: 5.738602;stroke-linecap: round;stroke-linejoin: round;stroke-miterlimit: 10.000000;fill: none;"></path>
  <path d="M20.240540 78.348602C15.560471 78.348602,11.072632 76.931320,7.763580 74.409119C4.454514 71.886932,2.595078 68.466263,2.595078 64.899063L2.594864 62.029755L9.481079 62.029755L9.481079 64.899063C9.481079 68.466263,10.614883 71.886932,12.632614 74.409119C14.650330 76.931320,17.386826 78.348602,20.240540 78.348602Z" style="fill: rgb(0.000000%,0.000000%,0.000000%);stroke: none;"></path>
</svg>
