<?xml version="1.0"?>
<!-- Created by MetaPost 2.02 on 2024.12.29:2023 -->
<svg version="1.1" xmlns="http://www.w3.org/2000/svg" xmlns:xlink="http://www.w3.org/1999/xlink" width="52.154510" height="77.469452" viewBox="0 0 52.154510 77.469452">
<!-- Original BoundingBox: -20.593307 -38.734726 31.561203 38.734726 -->
  <g transform="matrix(-1.000000,-0.000000,-0.000000,1.000000,0.000000,0.000000)">
    <path d="M-2.823105 15.419006C-3.748734 12.832870,-5.110184 10.455734,-6.853500 8.437988C-10.340134 4.402496,-15.068787 2.134857,-20.000000 2.134857" style="stroke:rgb(0.000000%,0.000000%,0.000000%); stroke-width: 5.738602;stroke-linecap: round;stroke-linejoin: round;stroke-miterlimit: 10.000000;fill: none;"></path>
  </g>
  <g transform="matrix(-1.000000,-0.000000,-0.000000,1.000000,0.000000,0.000000)">
    <path d="M-20.000000 73.865143C-15.068787 73.865143,-10.340134 71.597504,-6.853500 67.562012C-4.761505 65.140686,-3.219391 62.201828,-2.320419 59.005325" style="stroke:rgb(0.000000%,0.000000%,0.000000%); stroke-width: 5.738602;stroke-linecap: round;stroke-linejoin: round;stroke-miterlimit: 10.000000;fill: none;"></path>
  </g>
  <g transform="matrix(-1.000000,-0.000000,-0.000000,1.000000,0.000000,0.000000)">
    <path d="M-20.000000 2.134583C-27.609909 2.134583,-34.907211 5.913986,-40.287811 12.639847C-45.668427 19.365707,-48.691895 28.487473,-48.691895 38.000000C-48.691895 47.512527,-45.668427 56.634293,-40.287811 63.360153C-34.907211 70.086014,-27.609909 73.865417,-20.000000 73.865417" style="stroke:rgb(0.000000%,0.000000%,0.000000%); stroke-width: 5.738602;stroke-linecap: round;stroke-linejoin: round;stroke-miterlimit: 10.000000;fill: none;"></path>
  </g>
  <path d="M20.000000 2.134583C27.609909 2.134583,34.907211 5.913986,40.287811 12.639847C45.668427 19.365707,48.691895 28.487473,48.691895 38.000000C48.691895 47.512527,45.668427 56.634293,40.287811 63.360153C34.907211 70.086014,27.609909 73.865417,20.000000 73.865417C15.692307 73.865417,13.061096 69.768036,9.894623 66.897827C9.164658 66.236160,8.472992 65.499786,7.827332 64.692703C6.213165 62.674957,4.952560 60.297821,4.095490 57.711685C0.415253 46.606888,1.522751 34.720535,2.999283 23.137436C4.360870 12.456024,10.073135 2.134583,20.000000 2.134583Z" style="fill: rgb(0.000000%,0.000000%,0.000000%);stroke: none;"></path>
  <path d="M2.999283 23.137436C3.566895 18.684647,5.244492 14.535904,7.827332 11.307297C11.055695 7.271805,15.434067 5.004166,20.000000 5.004166C24.565933 5.004166,28.944305 7.271805,32.172668 11.307297C34.755508 14.535904,36.433105 18.684647,37.000717 23.137436C38.258682 33.005890,38.258682 42.994110,37.000717 52.862564C36.433105 57.315353,34.755508 61.464096,32.172668 64.692703C28.944305 68.728195,24.565933 70.995834,20.000000 70.995834C15.434067 70.995834,11.055695 68.728195,7.827332 64.692703C6.213165 62.674957,4.952560 60.297821,4.095490 57.711685C0.415253 46.606888,1.522751 34.720535,2.999283 23.137436Z" style="fill: rgb(100.000000%,100.000000%,100.000000%);stroke: none;"></path>
  <g transform="matrix(-1.000000,-0.000000,-0.000000,1.000000,0.000000,0.000000)">
    <path d="M-0.841354 16.669632C-0.841354 15.147675,-1.446045 13.688232,-2.522156 12.612137C-3.598251 11.536026,-5.057693 10.931335,-6.579651 10.931335C-8.101608 10.931335,-9.561050 11.536026,-10.637146 12.612137C-11.713257 13.688232,-12.317947 15.147675,-12.317947 16.669632C-12.317947 18.191589,-11.713257 19.651031,-10.637146 20.727127C-9.561050 21.803238,-8.101608 22.407928,-6.579651 22.407928C-5.057693 22.407928,-3.598251 21.803238,-2.522156 20.727127C-1.446045 19.651031,-0.841354 18.191589,-0.841354 16.669632Z" style="stroke:rgb(0.000000%,0.000000%,0.000000%); stroke-width: 2.869308;stroke-linecap: round;stroke-linejoin: round;stroke-miterlimit: 10.000000;fill: none;"></path>
  </g>
  <path d="M0.841354 16.669632C0.841354 15.147675,1.446045 13.688232,2.522156 12.612137C3.598251 11.536026,5.057693 10.931335,6.579651 10.931335C8.101608 10.931335,9.561050 11.536026,10.637146 12.612137C11.713257 13.688232,12.317947 15.147675,12.317947 16.669632C12.317947 18.191589,11.713257 19.651031,10.637146 20.727127C9.561050 21.803238,8.101608 22.407928,6.579651 22.407928C5.057693 22.407928,3.598251 21.803238,2.522156 20.727127C1.446045 19.651031,0.841354 18.191589,0.841354 16.669632Z" style="fill: rgb(0.000000%,0.000000%,0.000000%);stroke: none;"></path>
  <g transform="matrix(-1.000000,-0.000000,-0.000000,1.000000,0.000000,0.000000)">
    <path d="M-2.823105 15.419006C-3.748734 12.832870,-5.110184 10.455734,-6.853500 8.437988C-10.340134 4.402496,-15.068787 2.134857,-20.000000 2.134857" style="stroke:rgb(0.000000%,0.000000%,0.000000%); stroke-width: 5.738602;stroke-linecap: round;stroke-linejoin: round;stroke-miterlimit: 10.000000;fill: none;"></path>
  </g>
  <g transform="matrix(-1.000000,-0.000000,-0.000000,1.000000,0.000000,0.000000)">
    <path d="M-20.000000 73.865143C-15.068787 73.865143,-10.340134 71.597504,-6.853500 67.562012C-4.761505 65.140686,-3.219391 62.201828,-2.320419 59.005325" style="stroke:rgb(0.000000%,0.000000%,0.000000%); stroke-width: 5.738602;stroke-linecap: round;stroke-linejoin: round;stroke-miterlimit: 10.000000;fill: none;"></path>
  </g>
  <g transform="matrix(-1.000000,-0.000000,-0.000000,1.000000,0.000000,0.000000)">
    <path d="M-20.000000 2.134583C-27.609909 2.134583,-34.907211 5.913986,-40.287811 12.639847C-45.668427 19.365707,-48.691895 28.487473,-48.691895 38.000000C-48.691895 47.512527,-45.668427 56.634293,-40.287811 63.360153C-34.907211 70.086014,-27.609909 73.865417,-20.000000 73.865417" style="stroke:rgb(0.000000%,0.000000%,0.000000%); stroke-width: 5.738602;stroke-linecap: round;stroke-linejoin: round;stroke-miterlimit: 10.000000;fill: none;"></path>
  </g>
  <path d="M20.000000 2.134583C27.609909 2.134583,34.907211 5.913986,40.287811 12.639847C45.668427 19.365707,48.691895 28.487473,48.691895 38.000000C48.691895 47.512527,45.668427 56.634293,40.287811 63.360153C34.907211 70.086014,27.609909 73.865417,20.000000 73.865417C15.692307 73.865417,13.061096 69.768036,9.894623 66.897827C9.164658 66.236160,8.472992 65.499786,7.827332 64.692703C6.213165 62.674957,4.952560 60.297821,4.095490 57.711685C0.415253 46.606888,1.522751 34.720535,2.999283 23.137436C4.360870 12.456024,10.073135 2.134583,20.000000 2.134583Z" style="fill: rgb(0.000000%,0.000000%,0.000000%);stroke: none;"></path>
  <path d="M2.999283 23.137436C3.566895 18.684647,5.244492 14.535904,7.827332 11.307297C11.055695 7.271805,15.434067 5.004166,20.000000 5.004166C24.565933 5.004166,28.944305 7.271805,32.172668 11.307297C34.755508 14.535904,36.433105 18.684647,37.000717 23.137436C38.258682 33.005890,38.258682 42.994110,37.000717 52.862564C36.433105 57.315353,34.755508 61.464096,32.172668 64.692703C28.944305 68.728195,24.565933 70.995834,20.000000 70.995834C15.434067 70.995834,11.055695 68.728195,7.827332 64.692703C6.213165 62.674957,4.952560 60.297821,4.095490 57.711685C0.415253 46.606888,1.522751 34.720535,2.999283 23.137436Z" style="fill: rgb(100.000000%,100.000000%,100.000000%);stroke: none;"></path>
  <g transform="matrix(-1.000000,-0.000000,-0.000000,1.000000,0.000000,0.000000)">
    <path d="M-0.841354 16.669632C-0.841354 15.147675,-1.446045 13.688232,-2.522156 12.612137C-3.598251 11.536026,-5.057693 10.931335,-6.579651 10.931335C-8.101608 10.931335,-9.561050 11.536026,-10.637146 12.612137C-11.713257 13.688232,-12.317947 15.147675,-12.317947 16.669632C-12.317947 18.191589,-11.713257 19.651031,-10.637146 20.727127C-9.561050 21.803238,-8.101608 22.407928,-6.579651 22.407928C-5.057693 22.407928,-3.598251 21.803238,-2.522156 20.727127C-1.446045 19.651031,-0.841354 18.191589,-0.841354 16.669632Z" style="stroke:rgb(0.000000%,0.000000%,0.000000%); stroke-width: 2.869308;stroke-linecap: round;stroke-linejoin: round;stroke-miterlimit: 10.000000;fill: none;"></path>
  </g>
  <path d="M0.841354 16.669632C0.841354 15.147675,1.446045 13.688232,2.522156 12.612137C3.598251 11.536026,5.057693 10.931335,6.579651 10.931335C8.101608 10.931335,9.561050 11.536026,10.637146 12.612137C11.713257 13.688232,12.317947 15.147675,12.317947 16.669632C12.317947 18.191589,11.713257 19.651031,10.637146 20.727127C9.561050 21.803238,8.101608 22.407928,6.579651 22.407928C5.057693 22.407928,3.598251 21.803238,2.522156 20.727127C1.446045 19.651031,0.841354 18.191589,0.841354 16.669632Z" style="fill: rgb(0.000000%,0.000000%,0.000000%);stroke: none;"></path>
</svg>
