<?xml version="1.0"?>
<!-- Created by MetaPost 2.02 on 2024.12.29:2023 -->
<svg version="1.1" xmlns="http://www.w3.org/2000/svg" xmlns:xlink="http://www.w3.org/1999/xlink" width="28.691772" height="77.469452" viewBox="0 0 28.691772 77.469452">
<!-- Original BoundingBox: -14.345886 -38.734726 14.345886 38.734726 -->
  <path d="M5.392731 -0.734726L-0.345886 -0.734726L-0.345886 5.003891L-0.345886 42.662689L5.392731 42.662689L12.278503 40.869308L12.278503 35.130692L12.278503 -0.734726L6.539886 -0.734726L-0.345886 -0.734726L-0.345886 5.003891L5.392731 5.003891L12.278503 5.003891L6.539886 5.003891L6.539886 40.869308L6.539886 35.130692L-0.345886 36.924072L5.392731 36.924072Z" style="fill: rgb(0.000000%,0.000000%,0.000000%);stroke: none;"></path>
  <path d="M2.523422 2.134583L2.523422 39.793381L9.409195 38.000000L9.409195 2.134583Z" style="fill: rgb(0.000000%,0.000000%,0.000000%);stroke: none;"></path>
  <path d="M22.607269 76.734726L28.345886 76.734726L28.345886 70.996109L28.345886 33.337311L22.607269 33.337311L15.721497 35.130692L15.721497 40.869308L15.721497 76.734726L21.460114 76.734726L28.345886 76.734726L28.345886 70.996109L22.607269 70.996109L15.721497 70.996109L21.460114 70.996109L21.460114 35.130692L21.460114 40.869308L28.345886 39.075928L22.607269 39.075928Z" style="fill: rgb(0.000000%,0.000000%,0.000000%);stroke: none;"></path>
  <path d="M25.476578 73.865417L25.476578 36.206619L18.590805 38.000000L18.590805 73.865417Z" style="fill: rgb(0.000000%,0.000000%,0.000000%);stroke: none;"></path>
  <path d="M-0.345886 46.607895L28.345886 36.565628L28.345886 29.392105L-0.345886 39.434372L-0.345886 46.607895Z" style="fill: rgb(0.000000%,0.000000%,0.000000%);stroke: none;"></path>
</svg>
