<?xml version="1.0"?>
<!-- Created by MetaPost 2.02 on 2024.12.29:2023 -->
<svg version="1.1" xmlns="http://www.w3.org/2000/svg" xmlns:xlink="http://www.w3.org/1999/xlink" width="34.430511" height="77.469452" viewBox="0 0 34.430511 77.469452">
<!-- Original BoundingBox: -2.869308 -38.734726 31.561203 38.734726 -->
  <g transform="matrix(-1.000000,-0.000000,-0.000000,-1.000000,0.000000,0.000000)">
    <path d="M-2.000000 -73.865417L-2.000000 -2.134583" style="stroke:rgb(0.000000%,0.000000%,0.000000%); stroke-width: 5.738602;stroke-linecap: round;stroke-linejoin: round;stroke-miterlimit: 10.000000;fill: none;"></path>
  </g>
  <g transform="matrix(-1.000000,-0.000000,-0.000000,-1.000000,0.000000,0.000000)">
    <path d="M-2.000000 -2.134583C-2.000000 -5.939529,-3.511734 -9.588196,-6.202042 -12.278488C-8.892334 -14.968796,-12.541000 -16.480530,-16.345947 -16.480530C-20.150894 -16.480530,-23.799561 -14.968796,-26.489853 -12.278488C-29.180161 -9.588196,-30.691895 -5.939529,-30.691895 -2.134583L-30.691895 -2.134583C-27.305283 -6.650070,-21.990311 -9.307556,-16.345947 -9.307556C-10.701584 -9.307556,-5.386612 -6.650070,-2.000000 -2.134583Z" style="stroke:rgb(0.000000%,0.000000%,0.000000%); stroke-width: 5.738602;stroke-linecap: round;stroke-linejoin: round;stroke-miterlimit: 10.000000;fill: none;"></path>
  </g>
  <path d="M2.000000 2.134583C2.000000 5.939529,3.511734 9.588196,6.202042 12.278488C8.892334 14.968796,12.541000 16.480530,16.345947 16.480530C20.150894 16.480530,23.799561 14.968796,26.489853 12.278488C29.180161 9.588196,30.691895 5.939529,30.691895 2.134583L30.691895 2.134583C27.305283 6.650070,21.990311 9.307556,16.345947 9.307556C10.701584 9.307556,5.386612 6.650070,2.000000 2.134583Z" style="fill: rgb(0.000000%,0.000000%,0.000000%);stroke: none;"></path>
  <g transform="matrix(-1.000000,-0.000000,-0.000000,-1.000000,0.000000,0.000000)">
    <path d="M-2.000000 -73.865417L-2.000000 -2.134583" style="stroke:rgb(0.000000%,0.000000%,0.000000%); stroke-width: 5.738602;stroke-linecap: round;stroke-linejoin: round;stroke-miterlimit: 10.000000;fill: none;"></path>
  </g>
  <g transform="matrix(-1.000000,-0.000000,-0.000000,-1.000000,0.000000,0.000000)">
    <path d="M-2.000000 -2.134583C-2.000000 -5.939529,-3.511734 -9.588196,-6.202042 -12.278488C-8.892334 -14.968796,-12.541000 -16.480530,-16.345947 -16.480530C-20.150894 -16.480530,-23.799561 -14.968796,-26.489853 -12.278488C-29.180161 -9.588196,-30.691895 -5.939529,-30.691895 -2.134583L-30.691895 -2.134583C-27.305283 -6.650070,-21.990311 -9.307556,-16.345947 -9.307556C-10.701584 -9.307556,-5.386612 -6.650070,-2.000000 -2.134583Z" style="stroke:rgb(0.000000%,0.000000%,0.000000%); stroke-width: 5.738602;stroke-linecap: round;stroke-linejoin: round;stroke-miterlimit: 10.000000;fill: none;"></path>
  </g>
  <path d="M2.000000 2.134583C2.000000 5.939529,3.511734 9.588196,6.202042 12.278488C8.892334 14.968796,12.541000 16.480530,16.345947 16.480530C20.150894 16.480530,23.799561 14.968796,26.489853 12.278488C29.180161 9.588196,30.691895 5.939529,30.691895 2.134583L30.691895 2.134583C27.305283 6.650070,21.990311 9.307556,16.345947 9.307556C10.701584 9.307556,5.386612 6.650070,2.000000 2.134583Z" style="fill: rgb(0.000000%,0.000000%,0.000000%);stroke: none;"></path>
</svg>
