<?xml version="1.0"?>
<!-- Created by MetaPost 2.02 on 2024.12.29:2023 -->
<svg version="1.1" xmlns="http://www.w3.org/2000/svg" xmlns:xlink="http://www.w3.org/1999/xlink" width="60.827026" height="84.642426" viewBox="0 0 60.827026 84.642426">
<!-- Original BoundingBox: -30.413513 -42.321213 30.413513 42.321213 -->
  <path d="M2.455795 24.067291C3.824982 30.913345,10.621689 34.979675,17.827332 34.979675C29.732117 34.979675,43.175751 34.647202,47.215103 24.067291C51.229675 13.552307,42.204361 2.548096,30.000000 2.548096C24.527954 2.548096,20.159607 6.658096,17.827332 11.720535C12.315308 23.684952,18.099243 37.643097,30.000000 39.130692C50.637238 41.710342,57.599823 66.927902,42.172668 78.018082C38.663605 80.540649,34.321060 81.451904,30.000000 81.451904C17.795639 81.451904,8.770325 70.447693,12.784897 59.932709C16.824249 49.352798,30.267883 49.020325,42.172668 49.020325C49.378311 49.020325,56.175018 53.086655,57.544205 59.932709" style="stroke:rgb(0.000000%,0.000000%,0.000000%); stroke-width: 5.738602;stroke-linecap: round;stroke-linejoin: round;stroke-miterlimit: 10.000000;fill: none;"></path>
  <path d="M2.455795 24.067291C3.824982 30.913345,10.621689 34.979675,17.827332 34.979675C29.732117 34.979675,43.175751 34.647202,47.215103 24.067291C51.229675 13.552307,42.204361 2.548096,30.000000 2.548096C5.122559 2.548096,2.008102 41.370316,30.000000 44.869308C54.196289 47.893845,51.504135 81.451904,30.000000 81.451904C17.795639 81.451904,8.770325 70.447693,12.784897 59.932709C16.824249 49.352798,30.267883 49.020325,42.172668 49.020325C49.378311 49.020325,56.175018 53.086655,57.544205 59.932709" style="stroke:rgb(0.000000%,0.000000%,0.000000%); stroke-width: 5.738602;stroke-linecap: round;stroke-linejoin: round;stroke-miterlimit: 10.000000;fill: none;"></path>
</svg>
