<?xml version="1.0"?>
<!-- Created by MetaPost 2.02 on 2024.12.29:2023 -->
<svg version="1.1" xmlns="http://www.w3.org/2000/svg" xmlns:xlink="http://www.w3.org/1999/xlink" width="60.215057" height="77.469452" viewBox="0 0 60.215057 77.469452">
<!-- Original BoundingBox: -28.653854 -38.734726 31.561203 38.734726 -->
  <g transform="matrix(-1.000000,-0.000000,-0.000000,1.000000,0.000000,0.000000)">
    <path d="M-28.000000 2.134583C-35.609909 2.134583,-42.907211 5.913986,-48.287811 12.639847C-53.668427 19.365707,-56.691895 28.487473,-56.691895 38.000000C-56.691895 47.512527,-53.668427 56.634293,-48.287811 63.360153C-42.907211 70.086014,-35.609909 73.865417,-28.000000 73.865417" style="stroke:rgb(0.000000%,0.000000%,0.000000%); stroke-width: 5.738602;stroke-linecap: round;stroke-linejoin: round;stroke-miterlimit: 10.000000;fill: none;"></path>
  </g>
  <path d="M28.000000 2.134583C35.609909 2.134583,42.907211 5.913986,48.287811 12.639847C53.668427 19.365707,56.691895 28.487473,56.691895 38.000000C56.691895 47.512527,53.668427 56.634293,48.287811 63.360153C42.907211 70.086014,35.609909 73.865417,28.000000 73.865417C23.692307 73.865417,21.061096 69.768036,17.894623 66.897827C17.164658 66.236160,16.472992 65.499786,15.827332 64.692703C13.244492 61.464096,11.566895 57.315353,10.999283 52.862564C9.741318 42.994110,9.741318 33.005890,10.999283 23.137436C12.360886 12.456024,18.073135 2.134583,28.000000 2.134583Z" style="fill: rgb(0.000000%,0.000000%,0.000000%);stroke: none;"></path>
  <g transform="matrix(-1.000000,-0.000000,-0.000000,1.000000,0.000000,0.000000)">
    <path d="M-28.000000 2.134857C-23.129669 2.134857,-18.459396 4.402496,-15.015808 8.437988C-12.260773 11.666595,-10.471329 15.815338,-9.865875 20.268127C-8.265884 32.035233,-8.265884 43.964767,-9.865875 55.731873C-10.471329 60.184662,-12.260773 64.333405,-15.015808 67.562012C-18.459396 71.597504,-23.129669 73.865143,-28.000000 73.865143" style="stroke:rgb(0.000000%,0.000000%,0.000000%); stroke-width: 5.738602;stroke-linecap: round;stroke-linejoin: round;stroke-miterlimit: 10.000000;fill: none;"></path>
  </g>
  <path d="M10.999283 23.137436C11.566895 18.684647,13.244492 14.535904,15.827332 11.307297C19.055695 7.271805,23.434067 5.004166,28.000000 5.004166C32.565933 5.004166,36.944305 7.271805,40.172668 11.307297C42.755508 14.535904,44.433105 18.684647,45.000717 23.137436C46.258682 33.005890,46.258682 42.994110,45.000717 52.862564C44.433105 57.315353,42.755508 61.464096,40.172668 64.692703C36.944305 68.728195,32.565933 70.995834,28.000000 70.995834C23.434067 70.995834,19.055695 68.728195,15.827332 64.692703C13.244492 61.464096,11.566895 57.315353,10.999283 52.862564C9.741318 42.994110,9.741318 33.005890,10.999283 23.137436Z" style="fill: rgb(100.000000%,100.000000%,100.000000%);stroke: none;"></path>
  <path d="M-0.653854 -0.734726L-0.653854 5.003891L5.084763 5.003891L11.970978 5.003891L6.232361 5.003891L6.232361 76.734726L6.232361 70.996109L-0.653854 70.996109L5.084763 70.996109L5.084763 -0.734726L-0.653854 -0.734726L-0.653854 5.003891L-0.653854 76.734726L5.084763 76.734726L11.970978 76.734726L11.970978 70.996109L11.970978 -0.734726L6.232361 -0.734726Z" style="fill: rgb(0.000000%,0.000000%,0.000000%);stroke: none;"></path>
  <path d="M2.215454 2.134583L9.101669 2.134583L9.101669 73.865417L2.215454 73.865417Z" style="fill: rgb(0.000000%,0.000000%,0.000000%);stroke: none;"></path>
  <g transform="matrix(-1.000000,-0.000000,-0.000000,1.000000,0.000000,0.000000)">
    <path d="M-28.000000 2.134583C-35.609909 2.134583,-42.907211 5.913986,-48.287811 12.639847C-53.668427 19.365707,-56.691895 28.487473,-56.691895 38.000000C-56.691895 47.512527,-53.668427 56.634293,-48.287811 63.360153C-42.907211 70.086014,-35.609909 73.865417,-28.000000 73.865417" style="stroke:rgb(0.000000%,0.000000%,0.000000%); stroke-width: 5.738602;stroke-linecap: round;stroke-linejoin: round;stroke-miterlimit: 10.000000;fill: none;"></path>
  </g>
  <path d="M28.000000 2.134583C35.609909 2.134583,42.907211 5.913986,48.287811 12.639847C53.668427 19.365707,56.691895 28.487473,56.691895 38.000000C56.691895 47.512527,53.668427 56.634293,48.287811 63.360153C42.907211 70.086014,35.609909 73.865417,28.000000 73.865417C23.692307 73.865417,21.061096 69.768036,17.894623 66.897827C17.164658 66.236160,16.472992 65.499786,15.827332 64.692703C13.244492 61.464096,11.566895 57.315353,10.999283 52.862564C9.741318 42.994110,9.741318 33.005890,10.999283 23.137436C12.360886 12.456024,18.073135 2.134583,28.000000 2.134583Z" style="fill: rgb(0.000000%,0.000000%,0.000000%);stroke: none;"></path>
  <g transform="matrix(-1.000000,-0.000000,-0.000000,1.000000,0.000000,0.000000)">
    <path d="M-28.000000 2.134857C-23.129669 2.134857,-18.459396 4.402496,-15.015808 8.437988C-12.260773 11.666595,-10.471329 15.815338,-9.865875 20.268127C-8.265884 32.035233,-8.265884 43.964767,-9.865875 55.731873C-10.471329 60.184662,-12.260773 64.333405,-15.015808 67.562012C-18.459396 71.597504,-23.129669 73.865143,-28.000000 73.865143" style="stroke:rgb(0.000000%,0.000000%,0.000000%); stroke-width: 5.738602;stroke-linecap: round;stroke-linejoin: round;stroke-miterlimit: 10.000000;fill: none;"></path>
  </g>
  <path d="M10.999283 23.137436C11.566895 18.684647,13.244492 14.535904,15.827332 11.307297C19.055695 7.271805,23.434067 5.004166,28.000000 5.004166C32.565933 5.004166,36.944305 7.271805,40.172668 11.307297C42.755508 14.535904,44.433105 18.684647,45.000717 23.137436C46.258682 33.005890,46.258682 42.994110,45.000717 52.862564C44.433105 57.315353,42.755508 61.464096,40.172668 64.692703C36.944305 68.728195,32.565933 70.995834,28.000000 70.995834C23.434067 70.995834,19.055695 68.728195,15.827332 64.692703C13.244492 61.464096,11.566895 57.315353,10.999283 52.862564C9.741318 42.994110,9.741318 33.005890,10.999283 23.137436Z" style="fill: rgb(100.000000%,100.000000%,100.000000%);stroke: none;"></path>
  <path d="M-0.653854 -0.734726L-0.653854 5.003891L5.084763 5.003891L11.970978 5.003891L6.232361 5.003891L6.232361 76.734726L6.232361 70.996109L-0.653854 70.996109L5.084763 70.996109L5.084763 -0.734726L-0.653854 -0.734726L-0.653854 5.003891L-0.653854 76.734726L5.084763 76.734726L11.970978 76.734726L11.970978 70.996109L11.970978 -0.734726L6.232361 -0.734726Z" style="fill: rgb(0.000000%,0.000000%,0.000000%);stroke: none;"></path>
  <path d="M2.215454 2.134583L9.101669 2.134583L9.101669 73.865417L2.215454 73.865417Z" style="fill: rgb(0.000000%,0.000000%,0.000000%);stroke: none;"></path>
</svg>
