<?xml version="1.0"?>
<!-- Created by MetaPost 2.02 on 2024.12.29:2023 -->
<svg version="1.1" xmlns="http://www.w3.org/2000/svg" xmlns:xlink="http://www.w3.org/1999/xlink" width="55.949432" height="77.469452" viewBox="0 0 55.949432 77.469452">
<!-- Original BoundingBox: -2.869308 -38.734726 53.080124 38.734726 -->
  <path d="M11.755524 5.003891L11.755524 -0.734726L6.016907 -0.734726L-0.869308 -0.734726L-0.869308 5.003891L-0.869308 76.734726L4.869308 76.734726L55.080124 76.734726L55.080124 70.996109L55.080124 62.388214L49.341507 62.388214L6.016907 62.388214L11.755524 62.388214L11.755524 -0.734726L6.016907 -0.734726L6.016907 5.003891L6.016907 68.126831L11.755524 68.126831L55.080124 68.126831L49.341507 68.126831L49.341507 76.734726L49.341507 70.996109L-0.869308 70.996109L4.869308 70.996109L4.869308 -0.734726L4.869308 5.003891Z" style="fill: rgb(0.000000%,0.000000%,0.000000%);stroke: none;"></path>
  <path d="M8.886215 2.134583L2.000000 2.134583L2.000000 73.865417L52.210815 73.865417L52.210815 65.257523L8.886215 65.257523Z" style="fill: rgb(0.000000%,0.000000%,0.000000%);stroke: none;"></path>
  <path d="M11.755524 5.003891L11.755524 -0.734726L6.016907 -0.734726L-0.869308 -0.734726L-0.869308 5.003891L-0.869308 76.734726L4.869308 76.734726L55.080124 76.734726L55.080124 70.996109L55.080124 62.388214L49.341507 62.388214L6.016907 62.388214L11.755524 62.388214L11.755524 -0.734726L6.016907 -0.734726L6.016907 5.003891L6.016907 68.126831L11.755524 68.126831L55.080124 68.126831L49.341507 68.126831L49.341507 76.734726L49.341507 70.996109L-0.869308 70.996109L4.869308 70.996109L4.869308 -0.734726L4.869308 5.003891Z" style="fill: rgb(0.000000%,0.000000%,0.000000%);stroke: none;"></path>
  <path d="M8.886215 2.134583L2.000000 2.134583L2.000000 73.865417L52.210815 73.865417L52.210815 65.257523L8.886215 65.257523Z" style="fill: rgb(0.000000%,0.000000%,0.000000%);stroke: none;"></path>
</svg>
