<?xml version="1.0"?>
<!-- Created by MetaPost 2.02 on 2024.12.31:1613 -->
<svg version="1.1" xmlns="http://www.w3.org/2000/svg" xmlns:xlink="http://www.w3.org/1999/xlink" width="48.776459" height="77.469452" viewBox="0 0 48.776459 77.469452">
<!-- Original BoundingBox: -2.869308 -38.734726 45.907150 38.734726 -->
  <g transform="matrix(-1.000000,-0.000000,-0.000000,-1.000000,0.000000,0.000000)">
    <path d="M-2.000000 -73.865417L-2.000000 -2.134583" style="stroke:rgb(0.000000%,0.000000%,0.000000%); stroke-width: 5.738602;stroke-linecap: round;stroke-linejoin: round;stroke-miterlimit: 10.000000;fill: none;"></path>
  </g>
  <g transform="matrix(-1.000000,-0.000000,-0.000000,-1.000000,0.000000,0.000000)">
    <path d="M-2.000000 -2.134583C-2.000000 -7.842010,-4.267609 -13.314987,-8.303055 -17.350449C-12.338516 -21.385895,-17.811493 -23.653503,-23.518921 -23.653503C-29.226349 -23.653503,-34.699326 -21.385895,-38.734787 -17.350449C-42.770233 -13.314987,-45.037842 -7.842010,-45.037842 -2.134583L-45.037842 -2.134583C-41.418167 -10.821793,-32.930069 -16.480530,-23.518921 -16.480530C-14.107773 -16.480530,-5.619675 -10.821793,-2.000000 -2.134583Z" style="stroke:rgb(0.000000%,0.000000%,0.000000%); stroke-width: 5.738602;stroke-linecap: round;stroke-linejoin: round;stroke-miterlimit: 10.000000;fill: none;"></path>
  </g>
  <path d="M2.000000 2.134583C2.000000 7.842010,4.267609 13.314987,8.303055 17.350449C12.338516 21.385895,17.811493 23.653503,23.518921 23.653503C29.226349 23.653503,34.699326 21.385895,38.734787 17.350449C42.770233 13.314987,45.037842 7.842010,45.037842 2.134583L45.037842 2.134583C41.418167 10.821793,32.930069 16.480530,23.518921 16.480530C14.107773 16.480530,5.619675 10.821793,2.000000 2.134583Z" style="fill: rgb(0.000000%,0.000000%,0.000000%);stroke: none;"></path>
  <g transform="matrix(-1.000000,-0.000000,-0.000000,-1.000000,0.000000,0.000000)">
    <path d="M-2.000000 -73.865417L-2.000000 -2.134583" style="stroke:rgb(0.000000%,0.000000%,0.000000%); stroke-width: 5.738602;stroke-linecap: round;stroke-linejoin: round;stroke-miterlimit: 10.000000;fill: none;"></path>
  </g>
  <g transform="matrix(-1.000000,-0.000000,-0.000000,-1.000000,0.000000,0.000000)">
    <path d="M-2.000000 -2.134583C-2.000000 -7.842010,-4.267609 -13.314987,-8.303055 -17.350449C-12.338516 -21.385895,-17.811493 -23.653503,-23.518921 -23.653503C-29.226349 -23.653503,-34.699326 -21.385895,-38.734787 -17.350449C-42.770233 -13.314987,-45.037842 -7.842010,-45.037842 -2.134583L-45.037842 -2.134583C-41.418167 -10.821793,-32.930069 -16.480530,-23.518921 -16.480530C-14.107773 -16.480530,-5.619675 -10.821793,-2.000000 -2.134583Z" style="stroke:rgb(0.000000%,0.000000%,0.000000%); stroke-width: 5.738602;stroke-linecap: round;stroke-linejoin: round;stroke-miterlimit: 10.000000;fill: none;"></path>
  </g>
  <path d="M2.000000 2.134583C2.000000 7.842010,4.267609 13.314987,8.303055 17.350449C12.338516 21.385895,17.811493 23.653503,23.518921 23.653503C29.226349 23.653503,34.699326 21.385895,38.734787 17.350449C42.770233 13.314987,45.037842 7.842010,45.037842 2.134583L45.037842 2.134583C41.418167 10.821793,32.930069 16.480530,23.518921 16.480530C14.107773 16.480530,5.619675 10.821793,2.000000 2.134583Z" style="fill: rgb(0.000000%,0.000000%,0.000000%);stroke: none;"></path>
</svg>
