<?xml version="1.0"?>
<!-- Created by MetaPost 2.02 on 2024.12.31:1613 -->
<svg version="1.1" xmlns="http://www.w3.org/2000/svg" xmlns:xlink="http://www.w3.org/1999/xlink" width="53.708679" height="81.055939" viewBox="0 0 53.708679 81.055939">
<!-- Original BoundingBox: -50.839371 -38.734726 2.869308 42.321213 -->
  <path d="M50.000000 77.865417L49.999786 24.067291" style="stroke:rgb(0.000000%,0.000000%,0.000000%); stroke-width: 5.738602;stroke-linecap: round;stroke-linejoin: round;stroke-miterlimit: 10.000000;fill: none;"></path>
  <path d="M32.067291 58.139328L32.067291 66.747223L50.000000 77.865417L50.000000 69.257523Z" style="stroke:rgb(0.000000%,0.000000%,0.000000%); stroke-width: 5.738602;stroke-linecap: round;stroke-linejoin: round;stroke-miterlimit: 10.000000;fill: none;"></path>
  <path d="M32.067291 58.139328L32.067291 66.747223L50.000000 77.865417L50.000000 69.257523Z" style="fill: rgb(0.000000%,0.000000%,0.000000%);stroke: none;"></path>
  <path d="M5.168228 58.139328L5.168228 66.747223L23.100937 77.865417L23.100937 69.257523Z" style="stroke:rgb(0.000000%,0.000000%,0.000000%); stroke-width: 5.738602;stroke-linecap: round;stroke-linejoin: round;stroke-miterlimit: 10.000000;fill: none;"></path>
  <path d="M5.168228 58.139328L5.168228 66.747223L23.100937 77.865417L23.100937 69.257523Z" style="fill: rgb(0.000000%,0.000000%,0.000000%);stroke: none;"></path>
  <path d="M23.100937 77.865417L32.067291 58.139328" style="stroke:rgb(0.000000%,0.000000%,0.000000%); stroke-width: 5.738602;stroke-linecap: round;stroke-linejoin: round;stroke-miterlimit: 10.000000;fill: none;"></path>
  <path d="M2.029938 65.043594L5.168228 58.139328" style="stroke:rgb(0.000000%,0.000000%,0.000000%); stroke-width: 5.738602;stroke-linecap: round;stroke-linejoin: round;stroke-miterlimit: 10.000000;fill: none;"></path>
  <path d="M2.029938 65.043594L23.100937 77.865417" style="stroke:rgb(0.000000%,0.000000%,0.000000%); stroke-width: 5.738602;stroke-linecap: round;stroke-linejoin: round;stroke-miterlimit: 10.000000;fill: none;"></path>
  <path d="M49.999786 24.067291C49.999786 12.889908,43.177505 2.548096,32.784683 2.548096C22.391861 2.548096,15.569580 12.889908,15.569580 24.067291C15.569580 39.025040,32.951935 45.586487,49.999786 45.586487" style="stroke:rgb(0.000000%,0.000000%,0.000000%); stroke-width: 5.738602;stroke-linecap: round;stroke-linejoin: round;stroke-miterlimit: 10.000000;fill: none;"></path>
  <path d="M49.999786 24.067291C49.999786 18.359787,48.185699 12.886734,44.957352 8.851227C44.150269 7.842361,43.271301 6.943985,42.335495 6.163895C35.814545 0.728012,27.046783 10.250671,27.046783 24.067291C27.046783 36.221664,37.575638 45.586487,49.999786 45.586487" style="stroke:rgb(0.000000%,0.000000%,0.000000%); stroke-width: 5.738602;stroke-linecap: round;stroke-linejoin: round;stroke-miterlimit: 10.000000;fill: none;"></path>
  <path d="M49.999786 24.067291C49.999786 12.889908,43.177505 2.548096,32.784683 2.548096C22.391861 2.548096,15.569580 12.889908,15.569580 24.067291C15.569580 39.025040,32.951935 45.586487,49.999786 45.586487L49.999786 45.586487C37.575638 45.586487,27.046783 36.221664,27.046783 24.067291C27.046783 10.250671,35.814545 0.728012,42.335495 6.163895C43.271301 6.943985,44.150269 7.842361,44.957352 8.851227C48.185699 12.886734,49.999786 18.359787,49.999786 24.067291Z" style="fill: rgb(0.000000%,0.000000%,0.000000%);stroke: none;"></path>
</svg>
