<?xml version="1.0"?>
<!-- Created by MetaPost 2.02 on 2024.12.31:1613 -->
<svg version="1.1" xmlns="http://www.w3.org/2000/svg" xmlns:xlink="http://www.w3.org/1999/xlink" width="51.645615" height="77.469452" viewBox="0 0 51.645615 77.469452">
<!-- Original BoundingBox: -31.561203 -38.734726 20.084412 38.734726 -->
  <path d="M31.000000 2.134583C35.565933 2.134583,39.944305 4.024277,43.172668 7.387207C46.401016 10.750137,48.215103 15.311035,48.215103 20.067291C48.215103 24.823547,46.401016 29.384445,43.172668 32.747375C39.944305 36.110306,35.565933 38.000000,31.000000 38.000000" style="stroke:rgb(0.000000%,0.000000%,0.000000%); stroke-width: 5.738602;stroke-linecap: round;stroke-linejoin: round;stroke-miterlimit: 10.000000;fill: none;"></path>
  <path d="M31.000000 38.000000C35.565933 38.000000,39.944305 39.889694,43.172668 43.252625C46.401016 46.615555,48.215103 51.176453,48.215103 55.932709C48.215103 60.688965,46.401016 65.249863,43.172668 68.612793C39.944305 71.975723,35.565933 73.865417,31.000000 73.865417" style="stroke:rgb(0.000000%,0.000000%,0.000000%); stroke-width: 5.738602;stroke-linecap: round;stroke-linejoin: round;stroke-miterlimit: 10.000000;fill: none;"></path>
  <path d="M31.000000 38.000000L24.113785 38.000000" style="stroke:rgb(0.000000%,0.000000%,0.000000%); stroke-width: 5.738602;stroke-linecap: round;stroke-linejoin: round;stroke-miterlimit: 10.000000;fill: none;"></path>
  <path d="M31.000000 2.134583C23.390091 2.134583,16.092789 5.913986,10.712189 12.639847C5.331573 19.365707,2.308105 28.487473,2.308105 38.000000C2.308105 47.512527,5.331573 56.634293,10.712189 63.360153C16.092789 70.086014,23.390091 73.865417,31.000000 73.865417L31.000000 73.865417C26.434067 73.865417,22.055695 71.975723,18.827332 68.612793C15.598984 65.249863,13.784897 60.688965,13.784897 55.932709L13.784897 20.067291C13.784897 15.311035,15.598984 10.750137,18.827332 7.387207C22.055695 4.024277,26.434067 2.134583,31.000000 2.134583Z" style="stroke:rgb(0.000000%,0.000000%,0.000000%); stroke-width: 5.738602;stroke-linecap: round;stroke-linejoin: round;stroke-miterlimit: 10.000000;fill: none;"></path>
  <path d="M31.000000 2.134583C23.390091 2.134583,16.092789 5.913986,10.712189 12.639847C5.331573 19.365707,2.308105 28.487473,2.308105 38.000000C2.308105 47.512527,5.331573 56.634293,10.712189 63.360153C16.092789 70.086014,23.390091 73.865417,31.000000 73.865417L31.000000 73.865417C26.434067 73.865417,22.055695 71.975723,18.827332 68.612793C15.598984 65.249863,13.784897 60.688965,13.784897 55.932709L13.784897 20.067291C13.784897 15.311035,15.598984 10.750137,18.827332 7.387207C22.055695 4.024277,26.434067 2.134583,31.000000 2.134583Z" style="fill: rgb(0.000000%,0.000000%,0.000000%);stroke: none;"></path>
</svg>
