<?xml version="1.0"?>
<!-- Created by MetaPost 2.02 on 2024.12.31:1613 -->
<svg version="1.1" xmlns="http://www.w3.org/2000/svg" xmlns:xlink="http://www.w3.org/1999/xlink" width="48.776459" height="82.849319" viewBox="0 0 48.776459 82.849319">
<!-- Original BoundingBox: -45.907150 -40.528107 2.869308 42.321213 -->
  <path d="M45.000000 77.865417L44.999786 24.067291" style="stroke:rgb(0.000000%,0.000000%,0.000000%); stroke-width: 5.738602;stroke-linecap: round;stroke-linejoin: round;stroke-miterlimit: 10.000000;fill: none;"></path>
  <path d="M1.962158 54.373611L1.962158 62.981506L45.000000 79.658798L45.000000 71.050903Z" style="stroke:rgb(0.000000%,0.000000%,0.000000%); stroke-width: 5.738602;stroke-linecap: round;stroke-linejoin: round;stroke-miterlimit: 10.000000;fill: none;"></path>
  <path d="M1.962158 54.373611L1.962158 62.981506L45.000000 79.658798L45.000000 71.050903Z" style="fill: rgb(0.000000%,0.000000%,0.000000%);stroke: none;"></path>
  <path d="M44.999786 24.067291C44.999786 12.889908,38.177505 2.548096,27.784683 2.548096C17.391861 2.548096,10.569580 12.889908,10.569580 24.067291C10.569580 39.025040,27.951935 45.586487,44.999786 45.586487" style="stroke:rgb(0.000000%,0.000000%,0.000000%); stroke-width: 5.738602;stroke-linecap: round;stroke-linejoin: round;stroke-miterlimit: 10.000000;fill: none;"></path>
  <path d="M44.999786 24.067291C44.999786 18.359787,43.185699 12.886734,39.957352 8.851227C39.150269 7.842361,38.271301 6.943985,37.335495 6.163895C30.814545 0.728012,22.046783 10.250671,22.046783 24.067291C22.046783 36.221664,32.575638 45.586487,44.999786 45.586487" style="stroke:rgb(0.000000%,0.000000%,0.000000%); stroke-width: 5.738602;stroke-linecap: round;stroke-linejoin: round;stroke-miterlimit: 10.000000;fill: none;"></path>
  <path d="M44.999786 24.067291C44.999786 12.889908,38.177505 2.548096,27.784683 2.548096C17.391861 2.548096,10.569580 12.889908,10.569580 24.067291C10.569580 39.025040,27.951935 45.586487,44.999786 45.586487L44.999786 45.586487C32.575638 45.586487,22.046783 36.221664,22.046783 24.067291C22.046783 10.250671,30.814545 0.728012,37.335495 6.163895C38.271301 6.943985,39.150269 7.842361,39.957352 8.851227C43.185699 12.886734,44.999786 18.359787,44.999786 24.067291Z" style="fill: rgb(0.000000%,0.000000%,0.000000%);stroke: none;"></path>
</svg>
