<?xml version="1.0"?>
<!-- Created by MetaPost 2.02 on 2024.12.31:1613 -->
<svg version="1.1" xmlns="http://www.w3.org/2000/svg" xmlns:xlink="http://www.w3.org/1999/xlink" width="51.645874" height="77.469452" viewBox="0 0 51.645874 77.469452">
<!-- Original BoundingBox: -25.822952 -38.734726 25.822922 38.734726 -->
  <g transform="matrix(-1.000000,-0.000000,-0.000000,1.000000,0.000000,0.000000)">
    <path d="M-2.046387 20.067291C-2.046387 9.116318,-13.140839 2.134583,-25.000000 2.134583C-34.640869 2.134583,-42.215012 10.291153,-42.215012 20.067291C-42.215012 22.604492,-41.472061 24.874283,-40.190002 26.839005L-10.654053 73.865417" style="stroke:rgb(0.000000%,0.000000%,0.000000%); stroke-width: 5.738602;stroke-linecap: round;stroke-linejoin: round;stroke-miterlimit: 10.000000;fill: none;"></path>
  </g>
  <g transform="matrix(-1.000000,-0.000000,-0.000000,1.000000,0.000000,0.000000)">
    <path d="M-2.046387 20.067291C-2.046387 9.116318,-13.140839 2.134583,-25.000000 2.134583C-36.859161 2.134583,-47.953613 9.116318,-47.953613 20.067291C-47.953613 24.663437,-46.213486 28.669403,-43.352402 31.918579L-10.654053 73.865417" style="stroke:rgb(0.000000%,0.000000%,0.000000%); stroke-width: 5.738602;stroke-linecap: round;stroke-linejoin: round;stroke-miterlimit: 10.000000;fill: none;"></path>
  </g>
  <g transform="matrix(-1.000000,-0.000000,-0.000000,1.000000,0.000000,0.000000)">
    <path d="M-0.611710 20.067291C-0.611710 18.545334,-1.216400 17.085892,-2.292511 16.009796C-3.368607 14.933685,-4.828049 14.328995,-6.350006 14.328995C-7.871964 14.328995,-9.331406 14.933685,-10.407501 16.009796C-11.483612 17.085892,-12.088303 18.545334,-12.088303 20.067291C-12.088303 21.589249,-11.483612 23.048691,-10.407501 24.124786C-9.331406 25.200897,-7.871964 25.805588,-6.350006 25.805588C-4.828049 25.805588,-3.368607 25.200897,-2.292511 24.124786C-1.216400 23.048691,-0.611710 21.589249,-0.611710 20.067291Z" style="stroke:rgb(0.000000%,0.000000%,0.000000%); stroke-width: 2.869308;stroke-linecap: round;stroke-linejoin: round;stroke-miterlimit: 10.000000;fill: none;"></path>
  </g>
  <path d="M0.611710 20.067291C0.611710 18.545334,1.216400 17.085892,2.292511 16.009796C3.368607 14.933685,4.828049 14.328995,6.350006 14.328995C7.871964 14.328995,9.331406 14.933685,10.407501 16.009796C11.483612 17.085892,12.088303 18.545334,12.088303 20.067291C12.088303 21.589249,11.483612 23.048691,10.407501 24.124786C9.331406 25.200897,7.871964 25.805588,6.350006 25.805588C4.828049 25.805588,3.368607 25.200897,2.292511 24.124786C1.216400 23.048691,0.611710 21.589249,0.611710 20.067291Z" style="fill: rgb(0.000000%,0.000000%,0.000000%);stroke: none;"></path>
  <path d="M35.243332 52.128937L39.944138 55.420471L43.235672 50.719666L25.608383 38.376892L20.907578 35.085358L17.616043 39.786163Z" style="fill: rgb(0.000000%,0.000000%,0.000000%);stroke: none;"></path>
</svg>
