<?xml version="1.0"?>
<!-- Created by MetaPost 2.02 on 2024.12.31:1613 -->
<svg version="1.1" xmlns="http://www.w3.org/2000/svg" xmlns:xlink="http://www.w3.org/1999/xlink" width="51.645905" height="77.469452" viewBox="0 0 51.645905 77.469452">
<!-- Original BoundingBox: -25.822952 -38.734726 25.822952 38.734726 -->
  <path d="M47.953613 20.067291C47.953613 9.116318,36.859161 2.134583,25.000000 2.134583C15.359131 2.134583,7.784988 10.291153,7.784988 20.067291C7.784988 28.524551,16.039825 34.010666,25.000000 35.130692C37.077530 36.640381,47.953613 44.442154,47.953613 55.932709C47.953613 66.883682,36.859161 73.865417,25.000000 73.865417C13.140839 73.865417,2.046387 66.883682,2.046387 55.932709" style="stroke:rgb(0.000000%,0.000000%,0.000000%); stroke-width: 5.738602;stroke-linecap: round;stroke-linejoin: round;stroke-miterlimit: 10.000000;fill: none;"></path>
  <path d="M47.953613 20.067291C47.953613 9.116318,36.859161 2.134583,25.000000 2.134583C13.140839 2.134583,2.046387 9.116318,2.046387 20.067291C2.046387 31.557846,12.922470 39.359619,25.000000 40.869308C33.960175 41.989334,42.215012 47.475449,42.215012 55.932709C42.215012 65.708847,34.640869 73.865417,25.000000 73.865417C13.140839 73.865417,2.046387 66.883682,2.046387 55.932709" style="stroke:rgb(0.000000%,0.000000%,0.000000%); stroke-width: 5.738602;stroke-linecap: round;stroke-linejoin: round;stroke-miterlimit: 10.000000;fill: none;"></path>
  <path d="M49.388290 20.067291C49.388290 18.545334,48.783600 17.085892,47.707489 16.009796C46.631393 14.933685,45.171951 14.328995,43.649994 14.328995C42.128036 14.328995,40.668594 14.933685,39.592499 16.009796C38.516388 17.085892,37.911697 18.545334,37.911697 20.067291C37.911697 21.589249,38.516388 23.048691,39.592499 24.124786C40.668594 25.200897,42.128036 25.805588,43.649994 25.805588C45.171951 25.805588,46.631393 25.200897,47.707489 24.124786C48.783600 23.048691,49.388290 21.589249,49.388290 20.067291Z" style="stroke:rgb(0.000000%,0.000000%,0.000000%); stroke-width: 2.869308;stroke-linecap: round;stroke-linejoin: round;stroke-miterlimit: 10.000000;fill: none;"></path>
  <path d="M49.388290 20.067291C49.388290 18.545334,48.783600 17.085892,47.707489 16.009796C46.631393 14.933685,45.171951 14.328995,43.649994 14.328995C42.128036 14.328995,40.668594 14.933685,39.592499 16.009796C38.516388 17.085892,37.911697 18.545334,37.911697 20.067291C37.911697 21.589249,38.516388 23.048691,39.592499 24.124786C40.668594 25.200897,42.128036 25.805588,43.649994 25.805588C45.171951 25.805588,46.631393 25.200897,47.707489 24.124786C48.783600 23.048691,49.388290 21.589249,49.388290 20.067291Z" style="fill: rgb(0.000000%,0.000000%,0.000000%);stroke: none;"></path>
  <path d="M12.088303 55.932709C12.088303 54.410751,11.483612 52.951309,10.407501 51.875214C9.331406 50.799103,7.871964 50.194412,6.350006 50.194412C4.828049 50.194412,3.368607 50.799103,2.292511 51.875214C1.216400 52.951309,0.611710 54.410751,0.611710 55.932709C0.611710 57.454666,1.216400 58.914108,2.292511 59.990204C3.368607 61.066315,4.828049 61.671005,6.350006 61.671005C7.871964 61.671005,9.331406 61.066315,10.407501 59.990204C11.483612 58.914108,12.088303 57.454666,12.088303 55.932709Z" style="stroke:rgb(0.000000%,0.000000%,0.000000%); stroke-width: 2.869308;stroke-linecap: round;stroke-linejoin: round;stroke-miterlimit: 10.000000;fill: none;"></path>
  <path d="M12.088303 55.932709C12.088303 54.410751,11.483612 52.951309,10.407501 51.875214C9.331406 50.799103,7.871964 50.194412,6.350006 50.194412C4.828049 50.194412,3.368607 50.799103,2.292511 51.875214C1.216400 52.951309,0.611710 54.410751,0.611710 55.932709C0.611710 57.454666,1.216400 58.914108,2.292511 59.990204C3.368607 61.066315,4.828049 61.671005,6.350006 61.671005C7.871964 61.671005,9.331406 61.066315,10.407501 59.990204C11.483612 58.914108,12.088303 57.454666,12.088303 55.932709Z" style="fill: rgb(0.000000%,0.000000%,0.000000%);stroke: none;"></path>
</svg>
