<?xml version="1.0"?>
<!-- Created by MetaPost 2.02 on 2024.12.31:1613 -->
<svg version="1.1" xmlns="http://www.w3.org/2000/svg" xmlns:xlink="http://www.w3.org/1999/xlink" width="46.905197" height="77.701416" viewBox="0 0 46.905197 77.701416">
<!-- Original BoundingBox: -12.481445 -38.966690 34.423752 38.734726 -->
  <g transform="matrix(-1.000000,-0.000000,-0.000000,-1.000000,0.000000,0.000000)">
    <path d="M-12.000000 -73.865143C-14.282990 -73.865143,-16.472214 -71.597504,-18.086411 -67.562012C-19.700607 -63.526505,-20.607666 -58.053452,-20.607666 -52.345947" style="stroke:rgb(0.000000%,0.000000%,0.000000%); stroke-width: 5.738602;stroke-linecap: round;stroke-linejoin: round;stroke-miterlimit: 10.000000;fill: none;"></path>
  </g>
  <path d="M17.738358 49.476639L17.738358 55.215256L23.476974 55.215256L30.363190 40.869308L30.363190 35.130692L30.363190 -0.734726L24.624573 -0.734726L17.738358 -0.734726L17.738358 5.003891L17.738358 55.215256L23.476974 55.215256L23.476974 49.476639L23.476974 -0.734726L23.476974 5.003891L30.363190 5.003891L24.624573 5.003891L24.624573 40.869308L24.624573 35.130692Z" style="fill: rgb(0.000000%,0.000000%,0.000000%);stroke: none;"></path>
  <path d="M20.607666 52.345947L27.493881 38.000000L27.493881 2.134583L20.607666 2.134583Z" style="fill: rgb(0.000000%,0.000000%,0.000000%);stroke: none;"></path>
  <g transform="matrix(-1.000000,-0.000000,-0.000000,-1.000000,0.000000,0.000000)">
    <path d="M-27.493881 -2.134583C-27.476562 -4.525574,-27.476562 -35.609009,-27.493881 -38.000000C-27.626129 -56.262329,-26.483902 -76.497513,-12.000000 -73.865143C-5.724136 -72.724533,-2.337692 -66.209320,-2.388428 -59.518921C-2.476364 -47.921646,-11.141785 -38.073822,-22.472672 -37.999725C-27.865631 -37.964462,-32.912384 -40.429901,-36.674088 -44.302856C-43.857300 -51.698532,-45.601532 -62.817688,-41.027908 -72.057617" style="stroke:rgb(0.000000%,0.000000%,0.000000%); stroke-width: 5.738602;stroke-linecap: round;stroke-linejoin: round;stroke-miterlimit: 10.000000;fill: none;"></path>
  </g>
  <path d="M20.607666 52.345947L27.493881 38.000000L21.959686 67.562012Z" style="fill: rgb(0.000000%,0.000000%,0.000000%);stroke: none;"></path>
  <g transform="matrix(-1.000000,-0.000000,-0.000000,-1.000000,0.000000,0.000000)">
    <path d="M-12.000000 -73.865143C-14.282990 -73.865143,-16.472214 -71.597504,-18.086411 -67.562012C-19.700607 -63.526505,-20.607666 -58.053452,-20.607666 -52.345947" style="stroke:rgb(0.000000%,0.000000%,0.000000%); stroke-width: 5.738602;stroke-linecap: round;stroke-linejoin: round;stroke-miterlimit: 10.000000;fill: none;"></path>
  </g>
  <path d="M17.738358 49.476639L17.738358 55.215256L23.476974 55.215256L30.363190 40.869308L30.363190 35.130692L30.363190 -0.734726L24.624573 -0.734726L17.738358 -0.734726L17.738358 5.003891L17.738358 55.215256L23.476974 55.215256L23.476974 49.476639L23.476974 -0.734726L23.476974 5.003891L30.363190 5.003891L24.624573 5.003891L24.624573 40.869308L24.624573 35.130692Z" style="fill: rgb(0.000000%,0.000000%,0.000000%);stroke: none;"></path>
  <path d="M20.607666 52.345947L27.493881 38.000000L27.493881 2.134583L20.607666 2.134583Z" style="fill: rgb(0.000000%,0.000000%,0.000000%);stroke: none;"></path>
  <g transform="matrix(-1.000000,-0.000000,-0.000000,-1.000000,0.000000,0.000000)">
    <path d="M-27.493881 -2.134583C-27.476562 -4.525574,-27.476562 -35.609009,-27.493881 -38.000000C-27.626129 -56.262329,-26.483902 -76.497513,-12.000000 -73.865143C-5.724136 -72.724533,-2.337692 -66.209320,-2.388428 -59.518921C-2.476364 -47.921646,-11.141785 -38.073822,-22.472672 -37.999725C-27.865631 -37.964462,-32.912384 -40.429901,-36.674088 -44.302856C-43.857300 -51.698532,-45.601532 -62.817688,-41.027908 -72.057617" style="stroke:rgb(0.000000%,0.000000%,0.000000%); stroke-width: 5.738602;stroke-linecap: round;stroke-linejoin: round;stroke-miterlimit: 10.000000;fill: none;"></path>
  </g>
  <path d="M20.607666 52.345947L27.493881 38.000000L21.959686 67.562012Z" style="fill: rgb(0.000000%,0.000000%,0.000000%);stroke: none;"></path>
</svg>
