<?xml version="1.0"?>
<!-- Created by MetaPost 2.02 on 2024.12.31:1613 -->
<svg version="1.1" xmlns="http://www.w3.org/2000/svg" xmlns:xlink="http://www.w3.org/1999/xlink" width="52.791306" height="77.469452" viewBox="0 0 52.791306 77.469452">
<!-- Original BoundingBox: -21.230103 -38.734726 31.561203 38.734726 -->
  <g transform="matrix(-1.000000,-0.000000,-0.000000,1.000000,0.000000,0.000000)">
    <path d="M-2.639206 17.245682C-3.252228 13.535004,-5.064026 10.077713,-7.853500 7.387207C-11.340134 4.024277,-16.068787 2.134583,-21.000000 2.134583" style="stroke:rgb(0.000000%,0.000000%,0.000000%); stroke-width: 5.738602;stroke-linecap: round;stroke-linejoin: round;stroke-miterlimit: 10.000000;fill: none;"></path>
  </g>
  <g transform="matrix(-1.000000,-0.000000,-0.000000,1.000000,0.000000,0.000000)">
    <path d="M-21.000000 73.865417C-16.068787 73.865417,-11.340134 71.975723,-7.853500 68.612793C-5.064026 65.922287,-3.252228 62.464996,-2.639206 58.754318" style="stroke:rgb(0.000000%,0.000000%,0.000000%); stroke-width: 5.738602;stroke-linecap: round;stroke-linejoin: round;stroke-miterlimit: 10.000000;fill: none;"></path>
  </g>
  <g transform="matrix(-1.000000,-0.000000,-0.000000,1.000000,0.000000,0.000000)">
    <path d="M-21.000000 2.134583C-28.609909 2.134583,-35.907211 4.024277,-41.287811 7.387207C-46.668427 10.750137,-49.691895 15.311020,-49.691895 20.067291C-49.691895 24.823563,-46.668427 29.384445,-41.287811 32.747375C-35.907211 36.110306,-28.609909 38.000000,-21.000000 38.000000" style="stroke:rgb(0.000000%,0.000000%,0.000000%); stroke-width: 5.738602;stroke-linecap: round;stroke-linejoin: round;stroke-miterlimit: 10.000000;fill: none;"></path>
  </g>
  <g transform="matrix(-1.000000,-0.000000,-0.000000,1.000000,0.000000,0.000000)">
    <path d="M-21.000000 38.000000C-28.609909 38.000000,-35.907211 39.889694,-41.287811 43.252625C-46.668427 46.615555,-49.691895 51.176437,-49.691895 55.932709C-49.691895 60.688980,-46.668427 65.249863,-41.287811 68.612793C-35.907211 71.975723,-28.609909 73.865417,-21.000000 73.865417" style="stroke:rgb(0.000000%,0.000000%,0.000000%); stroke-width: 5.738602;stroke-linecap: round;stroke-linejoin: round;stroke-miterlimit: 10.000000;fill: none;"></path>
  </g>
  <g transform="matrix(-1.000000,-0.000000,-0.000000,1.000000,0.000000,0.000000)">
    <path d="M-21.000000 2.134583C-28.609909 2.134583,-35.907211 4.024277,-41.287811 7.387207C-46.668427 10.750137,-49.691895 15.311020,-49.691895 20.067291C-49.691895 24.823563,-46.668427 29.384445,-41.287811 32.747375C-35.907211 36.110306,-28.609909 38.000000,-21.000000 38.000000L-21.000000 38.000000C-25.565933 38.000000,-29.944305 36.110306,-33.172668 32.747375C-36.401016 29.384445,-38.215103 24.823547,-38.215103 20.067291C-38.215103 15.311035,-36.401016 10.750137,-33.172668 7.387207C-29.944305 4.024277,-25.565933 2.134583,-21.000000 2.134583Z" style="stroke:rgb(0.000000%,0.000000%,0.000000%); stroke-width: 5.738602;stroke-linecap: round;stroke-linejoin: round;stroke-miterlimit: 10.000000;fill: none;"></path>
  </g>
  <path d="M21.000000 2.134583C28.609909 2.134583,35.907211 4.024277,41.287811 7.387207C46.668427 10.750137,49.691895 15.311020,49.691895 20.067291C49.691895 24.823563,46.668427 29.384445,41.287811 32.747375C35.907211 36.110306,28.609909 38.000000,21.000000 38.000000L21.000000 38.000000C25.565933 38.000000,29.944305 36.110306,33.172668 32.747375C36.401016 29.384445,38.215103 24.823547,38.215103 20.067291C38.215103 15.311035,36.401016 10.750137,33.172668 7.387207C29.944305 4.024277,25.565933 2.134583,21.000000 2.134583Z" style="fill: rgb(0.000000%,0.000000%,0.000000%);stroke: none;"></path>
  <g transform="matrix(-1.000000,-0.000000,-0.000000,1.000000,0.000000,0.000000)">
    <path d="M-21.000000 38.000000C-28.609909 38.000000,-35.907211 39.889694,-41.287811 43.252625C-46.668427 46.615555,-49.691895 51.176437,-49.691895 55.932709C-49.691895 60.688980,-46.668427 65.249863,-41.287811 68.612793C-35.907211 71.975723,-28.609909 73.865417,-21.000000 73.865417L-21.000000 73.865417C-25.565933 73.865417,-29.944305 71.975723,-33.172668 68.612793C-36.401016 65.249863,-38.215103 60.688965,-38.215103 55.932709C-38.215103 51.176453,-36.401016 46.615555,-33.172668 43.252625C-29.944305 39.889694,-25.565933 38.000000,-21.000000 38.000000Z" style="stroke:rgb(0.000000%,0.000000%,0.000000%); stroke-width: 5.738602;stroke-linecap: round;stroke-linejoin: round;stroke-miterlimit: 10.000000;fill: none;"></path>
  </g>
  <path d="M21.000000 38.000000C28.609909 38.000000,35.907211 39.889694,41.287811 43.252625C46.668427 46.615555,49.691895 51.176437,49.691895 55.932709C49.691895 60.688980,46.668427 65.249863,41.287811 68.612793C35.907211 71.975723,28.609909 73.865417,21.000000 73.865417L21.000000 73.865417C25.565933 73.865417,29.944305 71.975723,33.172668 68.612793C36.401016 65.249863,38.215103 60.688965,38.215103 55.932709C38.215103 51.176453,36.401016 46.615555,33.172668 43.252625C29.944305 39.889694,25.565933 38.000000,21.000000 38.000000Z" style="fill: rgb(0.000000%,0.000000%,0.000000%);stroke: none;"></path>
  <g transform="matrix(-1.000000,-0.000000,-0.000000,1.000000,0.000000,0.000000)">
    <path d="M-21.000000 38.000000L-14.113785 38.000000" style="stroke:rgb(0.000000%,0.000000%,0.000000%); stroke-width: 5.738602;stroke-linecap: round;stroke-linejoin: round;stroke-miterlimit: 10.000000;fill: none;"></path>
  </g>
  <g transform="matrix(-1.000000,-0.000000,-0.000000,1.000000,0.000000,0.000000)">
    <path d="M-2.639206 17.245682C-3.252228 13.535004,-5.064026 10.077713,-7.853500 7.387207C-11.340134 4.024277,-16.068787 2.134583,-21.000000 2.134583" style="stroke:rgb(0.000000%,0.000000%,0.000000%); stroke-width: 5.738602;stroke-linecap: round;stroke-linejoin: round;stroke-miterlimit: 10.000000;fill: none;"></path>
  </g>
  <g transform="matrix(-1.000000,-0.000000,-0.000000,1.000000,0.000000,0.000000)">
    <path d="M-21.000000 73.865417C-16.068787 73.865417,-11.340134 71.975723,-7.853500 68.612793C-5.064026 65.922287,-3.252228 62.464996,-2.639206 58.754318" style="stroke:rgb(0.000000%,0.000000%,0.000000%); stroke-width: 5.738602;stroke-linecap: round;stroke-linejoin: round;stroke-miterlimit: 10.000000;fill: none;"></path>
  </g>
  <g transform="matrix(-1.000000,-0.000000,-0.000000,1.000000,0.000000,0.000000)">
    <path d="M-21.000000 2.134583C-28.609909 2.134583,-35.907211 4.024277,-41.287811 7.387207C-46.668427 10.750137,-49.691895 15.311020,-49.691895 20.067291C-49.691895 24.823563,-46.668427 29.384445,-41.287811 32.747375C-35.907211 36.110306,-28.609909 38.000000,-21.000000 38.000000" style="stroke:rgb(0.000000%,0.000000%,0.000000%); stroke-width: 5.738602;stroke-linecap: round;stroke-linejoin: round;stroke-miterlimit: 10.000000;fill: none;"></path>
  </g>
  <g transform="matrix(-1.000000,-0.000000,-0.000000,1.000000,0.000000,0.000000)">
    <path d="M-21.000000 38.000000C-28.609909 38.000000,-35.907211 39.889694,-41.287811 43.252625C-46.668427 46.615555,-49.691895 51.176437,-49.691895 55.932709C-49.691895 60.688980,-46.668427 65.249863,-41.287811 68.612793C-35.907211 71.975723,-28.609909 73.865417,-21.000000 73.865417" style="stroke:rgb(0.000000%,0.000000%,0.000000%); stroke-width: 5.738602;stroke-linecap: round;stroke-linejoin: round;stroke-miterlimit: 10.000000;fill: none;"></path>
  </g>
  <g transform="matrix(-1.000000,-0.000000,-0.000000,1.000000,0.000000,0.000000)">
    <path d="M-21.000000 2.134583C-28.609909 2.134583,-35.907211 4.024277,-41.287811 7.387207C-46.668427 10.750137,-49.691895 15.311020,-49.691895 20.067291C-49.691895 24.823563,-46.668427 29.384445,-41.287811 32.747375C-35.907211 36.110306,-28.609909 38.000000,-21.000000 38.000000L-21.000000 38.000000C-25.565933 38.000000,-29.944305 36.110306,-33.172668 32.747375C-36.401016 29.384445,-38.215103 24.823547,-38.215103 20.067291C-38.215103 15.311035,-36.401016 10.750137,-33.172668 7.387207C-29.944305 4.024277,-25.565933 2.134583,-21.000000 2.134583Z" style="stroke:rgb(0.000000%,0.000000%,0.000000%); stroke-width: 5.738602;stroke-linecap: round;stroke-linejoin: round;stroke-miterlimit: 10.000000;fill: none;"></path>
  </g>
  <path d="M21.000000 2.134583C28.609909 2.134583,35.907211 4.024277,41.287811 7.387207C46.668427 10.750137,49.691895 15.311020,49.691895 20.067291C49.691895 24.823563,46.668427 29.384445,41.287811 32.747375C35.907211 36.110306,28.609909 38.000000,21.000000 38.000000L21.000000 38.000000C25.565933 38.000000,29.944305 36.110306,33.172668 32.747375C36.401016 29.384445,38.215103 24.823547,38.215103 20.067291C38.215103 15.311035,36.401016 10.750137,33.172668 7.387207C29.944305 4.024277,25.565933 2.134583,21.000000 2.134583Z" style="fill: rgb(0.000000%,0.000000%,0.000000%);stroke: none;"></path>
  <g transform="matrix(-1.000000,-0.000000,-0.000000,1.000000,0.000000,0.000000)">
    <path d="M-21.000000 38.000000C-28.609909 38.000000,-35.907211 39.889694,-41.287811 43.252625C-46.668427 46.615555,-49.691895 51.176437,-49.691895 55.932709C-49.691895 60.688980,-46.668427 65.249863,-41.287811 68.612793C-35.907211 71.975723,-28.609909 73.865417,-21.000000 73.865417L-21.000000 73.865417C-25.565933 73.865417,-29.944305 71.975723,-33.172668 68.612793C-36.401016 65.249863,-38.215103 60.688965,-38.215103 55.932709C-38.215103 51.176453,-36.401016 46.615555,-33.172668 43.252625C-29.944305 39.889694,-25.565933 38.000000,-21.000000 38.000000Z" style="stroke:rgb(0.000000%,0.000000%,0.000000%); stroke-width: 5.738602;stroke-linecap: round;stroke-linejoin: round;stroke-miterlimit: 10.000000;fill: none;"></path>
  </g>
  <path d="M21.000000 38.000000C28.609909 38.000000,35.907211 39.889694,41.287811 43.252625C46.668427 46.615555,49.691895 51.176437,49.691895 55.932709C49.691895 60.688980,46.668427 65.249863,41.287811 68.612793C35.907211 71.975723,28.609909 73.865417,21.000000 73.865417L21.000000 73.865417C25.565933 73.865417,29.944305 71.975723,33.172668 68.612793C36.401016 65.249863,38.215103 60.688965,38.215103 55.932709C38.215103 51.176453,36.401016 46.615555,33.172668 43.252625C29.944305 39.889694,25.565933 38.000000,21.000000 38.000000Z" style="fill: rgb(0.000000%,0.000000%,0.000000%);stroke: none;"></path>
  <g transform="matrix(-1.000000,-0.000000,-0.000000,1.000000,0.000000,0.000000)">
    <path d="M-21.000000 38.000000L-14.113785 38.000000" style="stroke:rgb(0.000000%,0.000000%,0.000000%); stroke-width: 5.738602;stroke-linecap: round;stroke-linejoin: round;stroke-miterlimit: 10.000000;fill: none;"></path>
  </g>
</svg>
