<?xml version="1.0"?>
<!-- Created by MetaPost 2.02 on 2024.12.31:1613 -->
<svg version="1.1" xmlns="http://www.w3.org/2000/svg" xmlns:xlink="http://www.w3.org/1999/xlink" width="52.637268" height="74.600143" viewBox="0 0 52.637268 74.600143">
<!-- Original BoundingBox: -31.561203 -35.865417 21.076065 38.734726 -->
  <path d="M48.176895 8.776779C47.251266 7.483719,45.889816 6.295151,44.146500 5.286285C40.659866 3.268539,35.931213 2.134720,31.000000 2.134720" style="stroke:rgb(0.000000%,0.000000%,0.000000%); stroke-width: 5.738602;stroke-linecap: round;stroke-linejoin: round;stroke-miterlimit: 10.000000;fill: none;"></path>
  <path d="M31.000000 37.999863C35.931213 37.999863,40.659866 36.866043,44.146500 34.848297C46.238815 33.637451,47.781082 32.167770,48.679993 30.569229" style="stroke:rgb(0.000000%,0.000000%,0.000000%); stroke-width: 5.738602;stroke-linecap: round;stroke-linejoin: round;stroke-miterlimit: 10.000000;fill: none;"></path>
  <path d="M31.000000 2.134583C23.390091 2.134583,16.092789 4.024277,10.712189 7.387207C5.331573 10.750137,2.308105 15.311020,2.308105 20.067291C2.308105 24.823563,5.331573 29.384445,10.712189 32.747375C16.092789 36.110306,23.390091 38.000000,31.000000 38.000000" style="stroke:rgb(0.000000%,0.000000%,0.000000%); stroke-width: 5.738602;stroke-linecap: round;stroke-linejoin: round;stroke-miterlimit: 10.000000;fill: none;"></path>
  <path d="M31.000000 2.134583C23.390091 2.134583,16.092789 4.024277,10.712189 7.387207C5.331573 10.750137,2.308105 15.311020,2.308105 20.067291C2.308105 24.823563,5.331573 29.384445,10.712189 32.747375C16.092789 36.110306,23.390091 38.000000,31.000000 38.000000C34.624161 38.000000,37.818588 36.005829,41.105209 34.516296C41.835236 34.185440,42.526962 33.817230,43.172668 33.413651C44.786896 32.404739,46.047531 31.216125,46.904602 29.923004C50.237213 24.894867,49.499039 18.513031,48.000717 12.636017C46.196045 5.557388,38.617737 2.134583,31.000000 2.134583Z" style="fill: rgb(0.000000%,0.000000%,0.000000%);stroke: none;"></path>
  <path d="M48.000717 12.636017C47.433105 10.409622,45.755508 8.335236,43.172668 6.720932C39.944305 4.703186,35.565933 3.569366,31.000000 3.569366C26.434067 3.569366,22.055695 4.703186,18.827332 6.720932C16.244492 8.335236,14.566895 10.409622,13.999283 12.636017C12.756119 17.512207,12.756119 22.622375,13.999283 27.498566C14.566895 29.724960,16.244492 31.799347,18.827332 33.413651C22.055695 35.431396,26.434067 36.565216,31.000000 36.565216C35.565933 36.565216,39.944305 35.431396,43.172668 33.413651C44.786896 32.404739,46.047531 31.216125,46.904602 29.923004C50.237213 24.894867,49.499039 18.513031,48.000717 12.636017Z" style="fill: rgb(100.000000%,100.000000%,100.000000%);stroke: none;"></path>
  <path d="M50.641403 11.159836C50.641403 9.637878,50.036713 8.178436,48.960602 7.102341C47.884506 6.026230,46.425064 5.421539,44.903107 5.421539C43.381149 5.421539,41.921707 6.026230,40.845612 7.102341C39.769501 8.178436,39.164810 9.637878,39.164810 11.159836C39.164810 12.681793,39.769501 14.141235,40.845612 15.217331C41.921707 16.293442,43.381149 16.898132,44.903107 16.898132C46.425064 16.898132,47.884506 16.293442,48.960602 15.217331C50.036713 14.141235,50.641403 12.681793,50.641403 11.159836Z" style="stroke:rgb(0.000000%,0.000000%,0.000000%); stroke-width: 2.869308;stroke-linecap: round;stroke-linejoin: round;stroke-miterlimit: 10.000000;fill: none;"></path>
  <path d="M50.641403 11.159836C50.641403 9.637878,50.036713 8.178436,48.960602 7.102341C47.884506 6.026230,46.425064 5.421539,44.903107 5.421539C43.381149 5.421539,41.921707 6.026230,40.845612 7.102341C39.769501 8.178436,39.164810 9.637878,39.164810 11.159836C39.164810 12.681793,39.769501 14.141235,40.845612 15.217331C41.921707 16.293442,43.381149 16.898132,44.903107 16.898132C46.425064 16.898132,47.884506 16.293442,48.960602 15.217331C50.036713 14.141235,50.641403 12.681793,50.641403 11.159836Z" style="fill: rgb(0.000000%,0.000000%,0.000000%);stroke: none;"></path>
  <path d="M25.261398 73.865417L36.738602 73.865417L51.548889 30.569946L37.109665 39.228912L25.261398 73.865417Z" style="fill: rgb(0.000000%,0.000000%,0.000000%);stroke: none;"></path>
</svg>
