<?xml version="1.0"?>
<!-- Created by MetaPost 2.02 on 2024.12.31:1613 -->
<svg version="1.1" xmlns="http://www.w3.org/2000/svg" xmlns:xlink="http://www.w3.org/1999/xlink" width="40.168823" height="81.055939" viewBox="0 0 40.168823 81.055939">
<!-- Original BoundingBox: -20.084412 -38.734726 20.084412 42.321213 -->
  <path d="M34.345795 80.734726L40.084412 80.734726L40.084412 74.996109L40.084412 24.067291L34.345795 24.067291L34.345795 29.805908Z" style="fill: rgb(0.000000%,0.000000%,0.000000%);stroke: none;"></path>
  <path d="M37.215103 24.067291C37.215103 12.889908,30.392822 2.548096,20.000000 2.548096C9.607178 2.548096,2.784897 12.889908,2.784897 24.067291C2.784897 39.025040,20.167252 45.586487,37.215103 45.586487" style="stroke:rgb(0.000000%,0.000000%,0.000000%); stroke-width: 5.738602;stroke-linecap: round;stroke-linejoin: round;stroke-miterlimit: 10.000000;fill: none;"></path>
  <path d="M37.215103 24.067291C37.215103 18.359787,35.401016 12.886734,32.172668 8.851227C31.365585 7.842361,30.486618 6.943985,29.550812 6.163895C23.029861 0.728012,14.262100 10.250671,14.262100 24.067291C14.262100 36.221664,24.790955 45.586487,37.215103 45.586487" style="stroke:rgb(0.000000%,0.000000%,0.000000%); stroke-width: 5.738602;stroke-linecap: round;stroke-linejoin: round;stroke-miterlimit: 10.000000;fill: none;"></path>
  <path d="M37.215103 24.067291C37.215103 12.889908,30.392822 2.548096,20.000000 2.548096C9.607178 2.548096,2.784897 12.889908,2.784897 24.067291C2.784897 39.025040,20.167252 45.586487,37.215103 45.586487L37.215103 45.586487C24.790955 45.586487,14.262100 36.221664,14.262100 24.067291C14.262100 10.250671,23.029861 0.728012,29.550812 6.163895C30.486618 6.943985,31.365585 7.842361,32.172668 8.851227C35.401016 12.886734,37.215103 18.359787,37.215103 24.067291Z" style="fill: rgb(0.000000%,0.000000%,0.000000%);stroke: none;"></path>
</svg>
