<?xml version="1.0"?>
<!-- Created by MetaPost 2.02 on 2024.12.31:1613 -->
<svg version="1.1" xmlns="http://www.w3.org/2000/svg" xmlns:xlink="http://www.w3.org/1999/xlink" width="48.776459" height="77.469452" viewBox="0 0 48.776459 77.469452">
<!-- Original BoundingBox: -45.907150 -38.734726 2.869308 38.734726 -->
  <path d="M45.000000 2.134583L45.000000 73.865417" style="stroke:rgb(0.000000%,0.000000%,0.000000%); stroke-width: 5.738602;stroke-linecap: round;stroke-linejoin: round;stroke-miterlimit: 10.000000;fill: none;"></path>
  <path d="M45.000000 73.865417C45.000000 68.157990,42.732391 62.685013,38.696945 58.649551C34.661484 54.614105,29.188507 52.346497,23.481079 52.346497C17.773651 52.346497,12.300674 54.614105,8.265213 58.649551C4.229767 62.685013,1.962158 68.157990,1.962158 73.865417L1.962158 73.865417C5.581833 65.178207,14.069931 59.519470,23.481079 59.519470C32.892227 59.519470,41.380325 65.178207,45.000000 73.865417Z" style="stroke:rgb(0.000000%,0.000000%,0.000000%); stroke-width: 5.738602;stroke-linecap: round;stroke-linejoin: round;stroke-miterlimit: 10.000000;fill: none;"></path>
  <path d="M45.000000 73.865417C45.000000 68.157990,42.732391 62.685013,38.696945 58.649551C34.661484 54.614105,29.188507 52.346497,23.481079 52.346497C17.773651 52.346497,12.300674 54.614105,8.265213 58.649551C4.229767 62.685013,1.962158 68.157990,1.962158 73.865417L1.962158 73.865417C5.581833 65.178207,14.069931 59.519470,23.481079 59.519470C32.892227 59.519470,41.380325 65.178207,45.000000 73.865417Z" style="fill: rgb(0.000000%,0.000000%,0.000000%);stroke: none;"></path>
  <path d="M-0.907150 38.027039L45.000000 55.421799L45.000000 46.813889L-0.907150 29.419128L-0.907150 38.027039Z" style="fill: rgb(0.000000%,0.000000%,0.000000%);stroke: none;"></path>
</svg>
