<?xml version="1.0"?>
<!-- Created by MetaPost 2.02 on 2024.12.31:1613 -->
<svg version="1.1" xmlns="http://www.w3.org/2000/svg" xmlns:xlink="http://www.w3.org/1999/xlink" width="63.122406" height="77.469452" viewBox="0 0 63.122406 77.469452">
<!-- Original BoundingBox: -31.561203 -38.734726 31.561203 38.734726 -->
  <path d="M31.000000 64.899063L31.000000 46.966354" style="stroke:rgb(0.000000%,0.000000%,0.000000%); stroke-width: 5.738602;stroke-linecap: round;stroke-linejoin: round;stroke-miterlimit: 10.000000;fill: none;"></path>
  <path d="M48.000717 23.137436C47.433105 18.684647,45.755508 14.535904,43.172668 11.307297C39.944305 7.271805,35.565933 5.004166,31.000000 5.004166C26.434067 5.004166,22.055695 7.271805,18.827332 11.307297C16.244492 14.535904,14.566895 18.684647,13.999283 23.137436C12.743210 32.991028,13.978348 42.939545,13.999374 52.863327C14.017990 61.640381,16.253235 70.996109,23.827026 70.996109C26.601013 70.996109,28.130692 67.984116,28.130692 64.899063L28.130692 64.899063L28.130692 46.966354C28.130692 45.381683,29.415329 44.097046,31.000000 44.097046C32.584671 44.097046,33.869308 45.381683,33.869308 46.966354L33.869308 64.899063L33.869308 64.899063C33.869308 67.984116,35.398987 70.996109,38.172974 70.996109C45.746765 70.996109,47.982010 61.640396,48.000626 52.863327C48.021667 42.939545,49.256790 32.991028,48.000717 23.137436Z" style="stroke:rgb(0.000000%,0.000000%,0.000000%); stroke-width: 5.738602;stroke-linecap: round;stroke-linejoin: round;stroke-miterlimit: 10.000000;fill: none;"></path>
  <path d="M48.000717 23.137436C47.433105 18.684647,45.755508 14.535904,43.172668 11.307297C39.944305 7.271805,35.565933 5.004166,31.000000 5.004166C26.434067 5.004166,22.055695 7.271805,18.827332 11.307297C16.244492 14.535904,14.566895 18.684647,13.999283 23.137436C12.743210 32.991028,13.978348 42.939545,13.999374 52.863327C14.017990 61.640381,16.253235 70.996109,23.827026 70.996109C26.601013 70.996109,28.130692 67.984116,28.130692 64.899063L28.130692 64.899063L28.130692 46.966354C28.130692 45.381683,29.415329 44.097046,31.000000 44.097046C32.584671 44.097046,33.869308 45.381683,33.869308 46.966354L33.869308 64.899063L33.869308 64.899063C33.869308 67.984116,35.398987 70.996109,38.172974 70.996109C45.746765 70.996109,47.982010 61.640396,48.000626 52.863327C48.021667 42.939545,49.256790 32.991028,48.000717 23.137436Z" style="fill: rgb(100.000000%,100.000000%,100.000000%);stroke: none;"></path>
  <path d="M31.000000 2.134583C23.390091 2.134583,16.092789 5.913986,10.712189 12.639847C5.331573 19.365707,2.308105 28.487473,2.308105 38.000000C2.308105 42.756256,3.063965 47.414825,4.492401 51.725067C8.034515 62.413254,13.200699 73.865417,23.827026 73.865417C25.825699 73.865417,27.635910 72.795746,28.898987 71.239105C30.343307 69.459091,31.000000 67.191864,31.000000 64.899063L31.000000 64.899063L31.000000 46.966354" style="stroke:rgb(0.000000%,0.000000%,0.000000%); stroke-width: 5.738602;stroke-linecap: round;stroke-linejoin: round;stroke-miterlimit: 10.000000;fill: none;"></path>
  <path d="M31.000000 46.966354L31.000000 64.899063L31.000000 64.899063C31.000000 67.191864,31.656693 69.459091,33.101013 71.239105C34.364090 72.795746,36.174301 73.865417,38.172974 73.865417C48.799301 73.865417,53.965485 62.413254,57.507599 51.725067C58.936035 47.414825,59.691895 42.756256,59.691895 38.000000C59.691895 28.487473,56.668427 19.365707,51.287811 12.639847C45.907211 5.913986,38.609909 2.134583,31.000000 2.134583" style="stroke:rgb(0.000000%,0.000000%,0.000000%); stroke-width: 5.738602;stroke-linecap: round;stroke-linejoin: round;stroke-miterlimit: 10.000000;fill: none;"></path>
  <path d="M31.000000 5.004166C26.434067 5.004166,22.055695 7.271805,18.827332 11.307297C16.244492 14.535904,14.566895 18.684647,13.999283 23.137436C12.743210 32.991028,13.978348 42.939545,13.999374 52.863327C14.017990 61.640381,16.253235 70.996109,23.827026 70.996109L23.827026 70.996109C13.963684 70.996109,7.746796 61.545074,4.492401 51.725067C3.063965 47.414825,2.308105 42.756256,2.308105 38.000000C2.308105 28.487473,5.331573 19.365707,10.712189 12.639847C16.092789 5.913986,23.390091 2.134583,31.000000 2.134583C32.913055 2.134583,32.913055 5.004166,31.000000 5.004166Z" style="fill: rgb(0.000000%,0.000000%,0.000000%);stroke: none;"></path>
  <path d="M31.000000 5.004166C35.565933 5.004166,39.944305 7.271805,43.172668 11.307297C45.755508 14.535904,47.433105 18.684647,48.000717 23.137436C49.256790 32.991028,48.021652 42.939545,48.000626 52.863327C47.982010 61.640381,45.746765 70.996109,38.172974 70.996109L38.172974 70.996109C48.036316 70.996109,54.253204 61.545074,57.507599 51.725067C58.936035 47.414825,59.691895 42.756256,59.691895 38.000000C59.691895 28.487473,56.668427 19.365707,51.287811 12.639847C45.907211 5.913986,38.609909 2.134583,31.000000 2.134583C29.086945 2.134583,29.086945 5.004166,31.000000 5.004166Z" style="fill: rgb(0.000000%,0.000000%,0.000000%);stroke: none;"></path>
  <path d="M25.376251 2.830215C24.623199 6.779678,24.623184 16.813446,25.376251 20.762924C28.497879 37.134460,50.923050 39.585541,57.507568 24.274918" style="stroke:rgb(0.000000%,0.000000%,0.000000%); stroke-width: 5.738602;stroke-linecap: round;stroke-linejoin: round;stroke-miterlimit: 10.000000;fill: none;"></path>
</svg>
