<?xml version="1.0"?>
<!-- Created by MetaPost 2.02 on 2024.12.31:1613 -->
<svg version="1.1" xmlns="http://www.w3.org/2000/svg" xmlns:xlink="http://www.w3.org/1999/xlink" width="74.598999" height="77.469452" viewBox="0 0 74.598999 77.469452">
<!-- Original BoundingBox: -37.299500 -38.734726 37.299500 38.734726 -->
  <path d="M32.982880 57.367371L39.664108 74.931030L62.822906 -0.734726L50.198074 -0.734726L32.982880 57.367371Z" style="fill: rgb(0.000000%,0.000000%,0.000000%);stroke: none;"></path>
  <path d="M37.000000 73.865417L16.915604 11.100937C15.519348 6.737595,13.343704 2.134583,9.025223 2.134583C4.910461 2.134583,2.569809 6.546570,2.569809 11.100937C2.569809 16.808441,6.197968 22.281494,12.654678 26.317001C19.111389 30.352493,27.868149 32.620132,37.000000 32.620132C46.131851 32.620132,54.888611 30.352493,61.345322 26.317001C67.815506 22.273087,69.112885 14.038940,71.430191 6.797256" style="stroke:rgb(0.000000%,0.000000%,0.000000%); stroke-width: 5.738602;stroke-linecap: round;stroke-linejoin: round;stroke-miterlimit: 10.000000;fill: none;"></path>
  <path d="M37.000000 73.865417L19.784805 20.067291C17.741150 13.680771,15.332626 6.438538,9.025223 6.438538C1.777573 6.438538,0.929977 18.988983,12.654678 26.317001C19.111389 30.352493,27.868149 32.620132,37.000000 32.620132C46.131851 32.620132,54.888611 30.352493,61.345322 26.317001" style="stroke:rgb(0.000000%,0.000000%,0.000000%); stroke-width: 5.738602;stroke-linecap: round;stroke-linejoin: round;stroke-miterlimit: 10.000000;fill: none;"></path>
</svg>
